Love for All and Sharing is the first step to solving all the problems of humanity.

Websites I want to share.

 
http://www.shareintl.org/

 
http://www.lightmiddleway.com


Thank you very much

No credit for me...credit to EVERYONE for sharing

 
http://thepiratebay.org/user/raymondhome/

STORY
A serial killer returns to his hometown to stalk seven children who share the same birthday as the date he was allegedly put to rest.

Language:English
Source:RelizLab/LU.Thx
Duration : 1h 37mn
Overall bit rate : 941 Kbps

Video #0
Muxing mode : Packed bitstream
Codec ID : XVID
Codec ID/Hint : XviD
Duration : 1h 37mn
Bit rate : 803 Kbps
Width : 688 pixels
Height : 288 pixels
Display aspect ratio : 2.35:1
Frame rate : 25.000 fps
Resolution : 24 bits
Colorimetry : 4:2:0
Scan type : Progressive
Bits/(Pixel*Frame) : 0.162
Stream size : 560 MiB (85%)
Writing library : XviD 1.2.1 (UTC 2008-12-04)

Audio #1
ID : 1
Format : MPEG Audio
Format version : Version 1
Format profile : Layer 3
Codec ID : 55
Codec ID/Hint : MP3
Duration : 1h 37mn
Bit rate mode : Constant
Bit rate : 128 Kbps
Channel(s) : 2 channels
Sampling rate : 44.1 KHz
Resolution : 16 bits
Stream size : 89.3 MiB (14%)
Alignment : Split accross interleaves
Interleave, duration : 40 ms (1.00 video frame)
Interleave, preload duration : 500 ms

credit Feel-Free & pitic & to all the people who made it possible for us to share this...especially EVERYONE involve in the production of the movie...IF YOU LIKE IT...BUY IT :)

*****help what we can with others in need...the world is ONE big family*****

SCREENSHOTS
 
http://www.starshare.ro/bitbucket/My%20Soul%20To%20Take%202010%20CAM%20XviD%20-%20Feel-Free.avi_thumbs_%5B2010.10.15_16.20.33%5D.jpg
 
http://www.starshare.ro/bitbucket/My%20Soul%20To%20Take%202010%20CAM%20XviD%20-%20Feel-Free.avi_snapshot_01.29.37_%5B2010.10.15_14.32.21%5D.jpg
 
http://www.starshare.ro/bitbucket/My%20Soul%20To%20Take%202010%20CAM%20XviD%20-%20Feel-Free.avi_snapshot_00.53.53_%5B2010.10.15_14.33.44%5D.jpg
 
http://www.starshare.ro/bitbucket/My%20Soul%20To%20Take%202010%20CAM%20XviD%20-%20Feel-Free.avi_snapshot_00.41.31_%5B2010.10.15_14.32.07%5D.jpg
 
http://www.starshare.ro/bitbucket/My%20Soul%20To%20Take%202010%20CAM%20XviD%20-%20Feel-Free.avi_snapshot_01.00.24_%5B2010.10.15_14.32.16%5D.jpg

DON'T THANK US...HELP SOMEONE IN NEED :)

MAY YOU & YOUR LOVED ONES ALWAYS BE BLESSED WITH LIGHT, LOVE, JOY, PEACE, GOOD HEALTH & ABUNDANCE :)
 
http://www.imdb.com/title/tt0872230/